<?xml version="1.0" encoding="utf-8"?>
<!-- Generator: Adobe Illustrator 24.3.0, SVG Export Plug-In . SVG Version: 6.00 Build 0)  -->
<svg version="1.1" id="Layer_1" xmlns="http://www.w3.org/2000/svg" xmlns:xlink="http://www.w3.org/1999/xlink" x="0px" y="0px"
	 viewBox="0 0 677.5 30.5" style="enable-background:new 0 0 677.5 30.5;" xml:space="preserve">
<style type="text/css">
	.st0{fill:#000050;opacity: 0.7;}
</style>
<g id="Gr3g6T_1_">
	<g>
		<path class="st0" d="M616.2,17.4c-12.5,0-25-0.4-37.5,0.1c-62,2.2-124,0.4-185.9,1.1c-9,0.1-17.9,1.1-26.9,1.5
			c-7.5,0.3-15,0.1-22.5,0.4c-17.8,0.8-35.6,1.7-53.4,2.6c-5.8,0.3-11.6,0.8-17.4,1c-10.1,0.5-20.3,1.2-30.4,1.3
			c-50.2,0.1-100.3,0.2-150.5,0c-24.6-0.1-49.3-0.7-73.9-1.2c-4.3-0.1-6.5-1.5-6.4-4c0.1-2.1,2.9-4,6.7-4.1
			c12.2-0.1,24.3-0.2,36.5,0c33,0.5,65.9,1.3,98.9,1.7c18,0.2,36,0.2,54,0c18.5-0.2,37-0.2,55.5-1c19.1-0.8,38.2-2.4,57.3-3.6
			c2.2-0.1,4.3-0.2,6.5-0.3c14.5-0.4,29-0.5,43.5-1.1c58.5-2.2,117-0.3,175.4-1c11.1-0.1,22.3-1,33.4-1.6c1.3-0.1,2.7-0.2,4-0.2
			c27.3-0.1,54.7-0.1,82-0.2c0.2,0,0.3,0,0.5,0c2.3,0,4.4,0.2,4.6,3.3c0.1,2.8-1.3,3.9-3.9,4.2c-3.1,0.3-6.3,0.7-9.4,0.8
			c-13.5,0.1-27,0-40.5,0C616.2,17.4,616.2,17.4,616.2,17.4z"/>
	</g>
</g>
</svg>
