<?xml version="1.0" encoding="utf-8"?>
<!-- Generator: Adobe Illustrator 24.3.0, SVG Export Plug-In . SVG Version: 6.00 Build 0)  -->
<svg version="1.1" id="Layer_1" xmlns="http://www.w3.org/2000/svg" xmlns:xlink="http://www.w3.org/1999/xlink" x="0px" y="0px"
	 viewBox="0 0 1253.4 11.7" style="enable-background:new 0 0 1253.4 11.7;" xml:space="preserve">
<path d="M535.1,9.6c-8.7,0-17.3,0.1-26,0.1c0,0,0.1-0.2,0.1-0.2L509,9.6c-5.6-0.1-11.2-0.1-16.7-0.2c0,0,0.1-0.1,0.1-0.1
	c-14,0-28,0-42,0l0.1,0.1c-0.1-0.2-0.2-0.4-0.3-0.6c-0.3,0.2-0.5,0.4-0.8,0.6c0,0,0.1-0.1,0.1-0.1c-12.2,0.1-24.5,0.2-36.7,0.3
	c0-0.2-0.1-0.4,0-0.3c0-0.1,0,0.1,0.1,0.3c-14.5-0.2-29-0.3-43.4-0.5c-19.9-0.2-39.9-0.3-59.8-0.4c-1,0-2,0.4-3,0.7l0.1-0.1
	c-29.2-0.2-58.3-0.5-87.5-0.6c-14.5,0-29,0.4-43.6,0.7l0.1-0.1c-10.7,0-21.4,0.1-32,0.1l0.1-0.1c-3.4,0.1-6.8,0.1-10.2,0.2
	c0,0,0.1-0.1,0.1-0.1c-8,0-15.9,0-23.9,0l0.1,0.1C104.4,9.4,99,9.4,93.6,9.3c0,0,0.1,0.1,0.1,0.1c-0.4,0-0.7,0-1.1,0l0.1-0.1
	c-1.7,0-3.4,0-5.1,0l0.1,0.1c-12.4,0-24.7,0-37.1-0.1l0.1,0.1c-0.4,0-0.7,0-1.1,0c0,0,0.1-0.1,0.1-0.1c-7.7,0-15.4,0-23.1,0l0.1,0.1
	C18.5,9.2,10.3,9,2.1,8.5c0,0,0,0,0,0c-2.3-0.2-2.8-3.5-0.7-4.4c0.4-0.2,0.8-0.3,1.2-0.3c18.3-0.1,36.6,0,54.9,0c30.5,0,61,0,91.5,0
	c1.9,0,3.8-0.6,5.6-1c0,0-0.1,0.1-0.1,0.1c3.7-0.1,7.5-0.1,11.2-0.2l-0.1,0.1C180.8,3.3,195.9,4,211,4.1c21.6,0.1,43.2-0.4,64.8-0.6
	c1.9,0,3.8-0.4,5.7-0.6c0,0-0.1-0.1-0.1-0.1c2,0.3,4.1,0.7,6.1,1c0,0-0.1-0.1-0.1-0.1c0.4,0,0.7,0,1.1,0l-0.1,0.1
	c24.7-0.3,49.3-0.6,74-0.9l-0.1-0.1c14.4,0.3,28.8,0.9,43.3,0.9c19.5,0,39.1-0.5,58.6-0.7c0.1-0.1,0.3-0.3,0.4-0.4
	c16.6,0.4,33.1,0.8,49.7,1.2l-0.1-0.1c0.4,0,0.7,0,1.1,0l-0.1,0.1c13-0.3,26-0.7,39-1l-0.1,0.1c13-0.9,26-1.9,39-2.8
	c0.5,0,1.4-0.1,2-0.1l2,0c0.7,0,1.3,0,2,0l2,0c1.1,0,2.9,0.1,4,0.2c6.7,0.6,13.3,1.1,20,1.7c0,0,0.1,0,0.1,0
	c18.6,0.3,37.2,0.5,55.7,0.8c0,0,0.2,0.2,0.2,0.2c29.7,0.2,59.3,0.6,89,0.6c26.8,0,53.7-0.7,80.5-0.9c30.5-0.2,61.1-0.2,91.6-0.2
	c35,0,70.1,0.4,105.1,0.1c12.1-0.1,24.2-1.7,36.2-2.6c0.5,0.1,1,0.1,1.6,0.2c2.3,0.7,4.6,1.7,7,1.8c19.4,1,38.9,1.8,58.3,2.7
	c2.8,0.1,5.7,0.5,8.5,0.7c0,0.2,0,0.4,0,0.4c0,0.1,0-0.1-0.1-0.3c7,0.1,13.9,0.2,20.9,0.3l-0.1-0.1c11.7,0,23.3,0,35,0l-0.1-0.1
	c2.7,0.1,5.4,0.2,8.1,0.2c0,0-0.1-0.1-0.1-0.1c9.7,0,12-0.1,21.7-0.1c0,0,7.3,0.2,7.3,0.2v0c2.9,1.4,1.9,5.6-1.3,5.7
	c-15.4,0.1-30.7,0.1-46.1-0.1c-23.9-0.4-47.7-1.2-71.6-1.8c-2.6-0.1-5.2,0.5-7.8,0.8l-0.2-0.2c-61.1-0.8-122.1-1.6-183.2-2.3
	c-27.7-0.3-55.4-0.3-83.1-0.2c-29.1,0.1-58.2,1-87.3,0.8c-45.1-0.3-90.2-1.1-135.2-1.7c-10.9-0.2-21.8-1.3-32.6-0.8
	c-18,0.8-36,2.5-54,3.7C544.5,9.9,539.7,9.7,535.1,9.6c0-0.2,0-0.4,0-0.6C535.1,9.2,535.1,9.4,535.1,9.6z M1161.3,6.3l0.2-0.2
	l-0.3,0L1161.3,6.3z"/>
</svg>
