<?xml version="1.0" encoding="utf-8"?>
<!-- Generator: Adobe Illustrator 24.3.0, SVG Export Plug-In . SVG Version: 6.00 Build 0)  -->
<svg version="1.1" id="Layer_1" xmlns="http://www.w3.org/2000/svg" xmlns:xlink="http://www.w3.org/1999/xlink" x="0px" y="0px"
	 viewBox="0 0 1000 1000" style="enable-background:new 0 0 1000 1000;" xml:space="preserve">
<path fill="#000000" d="M520.4,354c-6.4,0.6-11.9,2.6-16.5,5.9c-4.7,3.4-8.5,7.6-11.5,12.7s-5.2,10.8-6.4,17.3c-1.3,6.5-1.6,13-0.9,19.8
	c0.8,8.7,3.3,14.8,7.5,18.3c4.1,3.5,9.3,4.9,15.5,4.4c3.8-0.4,7.2-1,9.9-1.8s5.7-1.9,8.9-3.2l5.6-73c-2.2-0.4-4.2-0.6-6.1-0.6
	C524.6,353.7,522.6,353.8,520.4,354L520.4,354z M69.2,292.1c138.8,138.5,277.3,277.2,416,415.7c11.7,11.8,17,11.7,28.9-0.1
	l393.2-393.2c9.6-9.6,22.9-17.8,27.6-29.4c4.8-11.9,1.5-27.3,1.5-41.3c0.1-27.5-13.4-40.9-41-40.9H102.5
	c-26.1,0-39.7,13.9-39.8,40.2c0,11,0.4,22-0.2,33C62.2,282.8,64.5,287.4,69.2,292.1L69.2,292.1z M738.9,559.1
	c-2.3-2.3-4.6-4.4-8.6-8.3c-2.3,3-4.1,6.2-6.6,8.6c-59.9,60-119.8,119.9-179.8,179.9c-28.1,28.1-60.5,28.2-88.4,0.3
	c-59.9-59.9-119.9-119.9-179.8-179.9c-2.5-2.5-4.4-5.6-6.9-8.9c-2.9,2.6-3.9,3.4-4.8,4.3C198.6,620.5,133.2,686,67.6,751.3
	c-5.9,5.9-5.5,12-3.8,18.6c4.6,17.8,17.9,26.9,38.6,26.9h794c2.6,0,5.2,0.2,7.8-0.1c12.7-1.5,22.9-7.3,28.3-19.2
	c5.5-12.1,6.8-18.9-4.5-30.1C864.5,685.2,801.8,622,738.9,559.1z M63.4,691.7l170-170c-56.7-57.2-113.5-114.4-170-171.4V691.7z
	 M935.7,690.6V350.1L765.5,520.3L935.7,690.6z"/>
</svg>
