<svg width="49" height="36" viewBox="0 0 49 36" fill="none" xmlns="http://www.w3.org/2000/svg">
<path d="M49 27.9389C49 29.2824 48.6986 30.4733 48.0957 31.5115C47.5532 32.4886 46.8298 33.313 45.9255 33.9847C45.0212 34.6565 44.0265 35.1756 42.9414 35.542C41.9166 35.8473 40.952 36 40.0478 36C38.6612 36 37.2445 35.6947 35.7977 35.084C34.4111 34.4122 33.1452 33.4657 31.9998 32.2443C30.8544 31.0229 29.92 29.5573 29.1965 27.8473C28.4731 26.1374 28.1114 24.2443 28.1114 22.1679C28.1114 18.5649 28.7745 15.4809 30.1008 12.916C31.4874 10.3511 33.115 8.21374 34.9839 6.50382C36.913 4.73282 38.8722 3.35878 40.8616 2.38168C42.9113 1.34351 44.5992 0.610687 45.9255 0.183206V3.1145C44.7198 3.84733 43.4237 4.64122 42.0371 5.49618C40.7109 6.35115 39.475 7.35878 38.3296 8.51908C37.2445 9.67939 36.3403 10.9924 35.6168 12.458C34.8934 13.9237 34.5317 15.5725 34.5317 17.4046C34.5317 18.3206 34.6221 19.0534 34.803 19.6031C34.9839 20.1527 35.1948 20.5802 35.436 20.8855C35.7374 21.1908 36.0087 21.4046 36.2498 21.5267C36.5513 21.6489 36.7924 21.7099 36.9732 21.7099C37.6364 21.7099 38.4502 21.5267 39.4148 21.1603C40.3793 20.7328 41.2836 20.5191 42.1276 20.5191C42.9113 20.5191 43.695 20.7023 44.4787 21.0687C45.3226 21.374 46.0762 21.8626 46.7393 22.5344C47.4025 23.145 47.945 23.9084 48.367 24.8244C48.789 25.7405 49 26.7786 49 27.9389ZM20.7982 27.7557C20.7982 29.0992 20.4967 30.2901 19.8939 31.3282C19.3513 32.3664 18.6279 33.2214 17.7236 33.8931C16.8194 34.5038 15.8247 34.9924 14.7396 35.3588C13.7147 35.6641 12.72 35.8168 11.7555 35.8168C10.3689 35.8168 8.98239 35.5115 7.59585 34.9008C6.2093 34.229 4.94333 33.313 3.79792 32.1527C2.65252 30.9313 1.71811 29.4657 0.994694 27.7557C0.331565 26.0458 0 24.1527 0 22.0763C0 18.4733 0.66313 15.3893 1.98939 12.8244C3.37593 10.1985 5.00361 8.03053 6.87243 6.32061C8.80154 4.54962 10.7608 3.17557 12.7502 2.19847C14.7396 1.16031 16.3974 0.427481 17.7236 0V3.0229C16.518 3.75573 15.2218 4.54962 13.8353 5.40458C12.509 6.25954 11.2732 7.26718 10.1278 8.42748C9.04268 9.58779 8.10827 10.9008 7.32457 12.3664C6.60115 13.771 6.23945 15.4198 6.23945 17.313C6.23945 19.0229 6.57101 20.1527 7.23414 20.7023C7.95755 21.2519 8.50012 21.5267 8.86182 21.5267C9.46467 21.5267 10.2484 21.3435 11.2129 20.9771C12.1775 20.6107 13.0817 20.4275 13.9257 20.4275C14.7094 20.4275 15.4931 20.6107 16.2768 20.9771C17.1208 21.2824 17.8744 21.771 18.5375 22.4427C19.2006 23.0534 19.7432 23.8168 20.1652 24.7328C20.5872 25.5878 20.7982 26.5954 20.7982 27.7557Z" fill="white"/>
</svg>
